<?xml version="1.0" encoding="utf-8"?>
<!-- Generated by IcoMoon.io -->
<!DOCTYPE svg PUBLIC "-//W3C//DTD SVG 1.1//EN" "http://www.w3.org/Graphics/SVG/1.1/DTD/svg11.dtd">
<svg version="1.1" xmlns="http://www.w3.org/2000/svg" xmlns:xlink="http://www.w3.org/1999/xlink" width="2048" height="1024" viewBox="0 0 2048 1024">
	<path d="M505.946 293.136c-9.848 0-20.51 8.584-23.914 18.974 0 0-44.634 211.606-103.032 393.608-58.368-181.94-103.032-393.608-103.032-393.608-3.312-10.39-14.004-18.974-23.914-18.974l-217.69-0.152 16.264 34.154 216.938 667.678c3.312 10.602 13.974 18.764 23.732 18.764h175.196c9.878 0 20.51-8.192 23.914-18.764 0 0 168.99-514.44 215.462-662.468 7.56-24.396 17.618-38.672 17.77-39.304l-217.694 0.092zM1746.040 293.136h-240.488c-13.402 0-22.136 3.916-30.992 14.426l-161.882 197.964-0.030-470.71c0-9.758-7.982-17.77-17.588-17.77 0 0-191.76-0.030-193.868-0.030l2.8 41.292v937.682c0 9.728 7.92 17.71 17.71 17.71h173.358c9.608 0 17.588-7.952 17.588-17.71v-202.12l37.798-44.514 136.042 245.308c6.024 10.42 20.812 19.034 32.978 19.034h220.672l-263.59-413.424 269.492-307.138zM783.992 293.136l2.8 40.176v662.678c0 9.728 7.89 17.71 17.648 17.71h176.158c9.698 0 17.588-7.952 17.588-17.71l0.034-702.854h-214.228zM1829.256 293.136l2.922 43.218v659.576c0 9.728 7.86 17.71 17.588 17.71h176.218c9.698 0 17.588-7.952 17.588-17.71l-0-702.794h-214.316z" />
</svg>
