<?xml version="1.0" encoding="UTF-8" standalone="no"?>
<!-- Generated by IcoMoon.io -->

<svg
   xmlns:dc="http://purl.org/dc/elements/1.1/"
   xmlns:cc="http://creativecommons.org/ns#"
   xmlns:rdf="http://www.w3.org/1999/02/22-rdf-syntax-ns#"
   xmlns:svg="http://www.w3.org/2000/svg"
   xmlns="http://www.w3.org/2000/svg"
   xmlns:sodipodi="http://sodipodi.sourceforge.net/DTD/sodipodi-0.dtd"
   xmlns:inkscape="http://www.inkscape.org/namespaces/inkscape"
   version="1.1"
   width="2048"
   height="1024"
   viewBox="0 0 2048 1024"
   id="svg3085"
   inkscape:version="0.48.4 r9939"
   sodipodi:docname="phub.svg">
  <metadata
     id="metadata3093">
    <rdf:RDF>
      <cc:Work
         rdf:about="">
        <dc:format>image/svg+xml</dc:format>
        <dc:type
           rdf:resource="http://purl.org/dc/dcmitype/StillImage" />
        <dc:title></dc:title>
      </cc:Work>
    </rdf:RDF>
  </metadata>
  <defs
     id="defs3091" />
  <sodipodi:namedview
     pagecolor="#ffffff"
     bordercolor="#666666"
     borderopacity="1"
     objecttolerance="10"
     gridtolerance="10"
     guidetolerance="10"
     inkscape:pageopacity="0"
     inkscape:pageshadow="2"
     inkscape:window-width="1366"
     inkscape:window-height="706"
     id="namedview3089"
     showgrid="false"
     inkscape:zoom="0.27929687"
     inkscape:cx="605.15522"
     inkscape:cy="788.77197"
     inkscape:window-x="-8"
     inkscape:window-y="-8"
     inkscape:window-maximized="1"
     inkscape:current-layer="svg3085" />
  <g
     transform="scale(0.77870044,1.2841909)"
     style="font-size:1011.95843506px;font-style:normal;font-weight:normal;line-height:125%;letter-spacing:0px;word-spacing:0px;fill:#000000;fill-opacity:1;stroke:none;font-family:Sans"
     id="text3095">
    <path
       d="m 88.098776,717.56555 0,-651.942392 245.923704,0 c 43.28458,6.52e-4 76.3412,2.075956 99.16995,6.225917 32.01855,5.33714 58.84926,15.491303 80.49221,30.462515 21.64195,14.97245 39.05967,35.94784 52.25322,62.92623 13.19246,26.9795 19.78896,56.62669 19.78952,88.94166 -5.6e-4,55.44072 -17.64064,102.3574 -52.92029,140.75019 -35.28067,38.39343 -99.02213,57.58999 -191.22457,57.58972 l -167.21033,0 0,265.04616 z m 86.273414,-341.98069 168.54445,0 c 55.7364,3.4e-4 95.3154,-10.37618 118.73712,-31.12959 23.42084,-20.75266 35.13148,-49.95514 35.13196,-87.60754 -4.8e-4,-27.27495 -6.89345,-50.62211 -20.67894,-70.04156 -13.7864,-19.41837 -31.9453,-32.24079 -54.47677,-38.46726 -14.52752,-3.85357 -41.35823,-5.78064 -80.4922,-5.78121 l -166.76562,0 z"
       style="font-size:910.76263428px"
       id="path2996" />
    <path
       d="m 699.12799,717.56555 0,-651.942392 86.27341,0 0,267.714412 338.8677,0 0,-267.714412 86.2735,0 0,651.942392 -86.2735,0 0,-307.29345 -338.8677,0 0,307.29345 z"
       style="font-size:910.76263428px"
       id="path2998" />
    <path
       d="m 1782.4375,65.623158 86.2734,0 0,376.667942 c -6e-4,65.52057 -7.4124,117.55139 -22.2354,156.09262 -14.8242,38.54147 -41.5808,69.89338 -80.2699,94.05581 -38.69,24.16249 -89.4609,36.24372 -152.3126,36.24373 -61.0735,-10e-6 -111.029,-10.52476 -149.8667,-31.57429 -38.838,-21.04949 -66.5581,-51.51198 -83.1604,-91.38756 -16.6026,-39.87536 -24.9038,-94.35208 -24.9037,-163.43031 l 0,-376.667942 86.2734,0 0,376.223232 c -10e-5,56.62642 5.2622,98.35484 15.7872,125.1854 10.5245,26.83086 28.6093,47.50977 54.2544,62.03681 25.6446,14.52721 56.9965,21.79077 94.0558,21.7907 63.4446,7e-5 108.6566,-14.37882 135.636,-43.1367 26.9785,-28.75767 40.468,-84.04968 40.4685,-165.87621 z"
       style="font-size:910.76263428px"
       id="path3000" />
    <path
       d="m 2009.2387,717.56555 0,-651.942392 244.5896,0 c 49.807,6.52e-4 89.7566,6.597152 119.8489,19.78952 30.0915,13.193633 53.661,33.501962 70.7086,60.925042 17.0467,27.42422 25.5702,56.10788 25.5708,86.05106 -6e-4,27.86884 -7.5606,54.10661 -22.6802,78.71337 -15.1205,24.60757 -37.9489,44.47119 -68.485,59.59091 39.4303,11.56276 69.7445,31.27814 90.9428,59.14621 21.1972,27.86865 31.7961,60.77703 31.7966,98.72525 -5e-4,30.53679 -6.4488,58.92398 -19.3448,85.16164 -12.897,26.23787 -28.8324,46.47208 -47.8061,60.70268 -18.9747,14.2307 -42.7666,24.97781 -71.3757,32.24136 -28.61,7.26357 -63.6678,10.89535 -105.1735,10.89535 z m 86.2735,-378.00207 140.9725,0 c 38.2446,3.8e-4 65.6682,-2.51963 82.271,-7.56004 21.9386,-6.522 38.4669,-17.34322 49.585,-32.46371 11.1173,-15.11965 16.6761,-34.09385 16.6766,-56.92266 -5e-4,-21.64198 -5.1887,-40.6903 -15.5648,-57.14502 -10.377,-16.45366 -25.2006,-27.71959 -44.4709,-33.79783 -19.271,-6.07711 -52.3276,-9.11595 -99.1699,-9.11652 l -130.2995,0 z m 0,301.06753 162.3185,0 c 27.868,8e-5 47.4352,-1.03757 58.7015,-3.11296 19.8632,-3.55758 36.4657,-9.48702 49.8073,-17.78833 13.3408,-8.30111 24.3103,-20.38234 32.9084,-36.24373 8.5973,-15.86111 12.8961,-34.16825 12.8966,-54.92147 -5e-4,-24.31051 -6.2264,-45.43414 -18.6778,-63.37094 -12.4522,-17.9363 -29.7217,-30.53635 -51.8085,-37.80021 -22.0875,-7.26327 -53.8842,-10.89505 -95.3899,-10.89535 l -150.7561,0 z"
       style="font-size:910.76263428px"
       id="path3002" />
  </g>
  <flowRoot
     xml:space="preserve"
     id="flowRoot3099"
     style="fill:black;stroke:none;stroke-opacity:1;stroke-width:1px;stroke-linejoin:miter;stroke-linecap:butt;fill-opacity:1;font-family:Sans;font-style:normal;font-weight:normal;font-size:40px;line-height:125%;letter-spacing:0px;word-spacing:0px"><flowRegion
       id="flowRegion3101"><rect
         id="rect3103"
         width="91.142601"
         height="156.96782"
         x="-22.78565"
         y="107.51049" /></flowRegion><flowPara
       id="flowPara3105" /></flowRoot></svg>
